<svg fill="none" height="42" viewBox="0 0 42 42" width="42" xmlns="http://www.w3.org/2000/svg" xmlns:xlink="http://www.w3.org/1999/xlink"><linearGradient id="a" gradientUnits="userSpaceOnUse" x1="1.96382" x2="40.972" y1="-.183135" y2="43.3845"><stop offset="0" stop-color="#00c6fc"/><stop offset="1" stop-color="#0060f9"/></linearGradient><path d="m20.9301.734985c-11.193 0-20.265 9.072005-20.265 20.265015 0 11.193 9.072 20.265 20.265 20.265s20.265-9.072 20.265-20.265c0-11.19301-9.072-20.265015-20.265-20.265015zm6.867 24.045015h-20.37c-.063-2.352 1.785-4.305 4.137-4.368.987 0 1.911.378 2.646 1.029 1.113-2.541 3.633-4.2 6.426-4.221 4.053.105 7.266 3.486 7.161 7.56zm6.636 0h-4.431c0-.084 0-.168 0-.252.063-1.218 1.113-2.163 2.331-2.079 1.239.063 2.163 1.113 2.1 2.331z" fill="url(#a)"/></svg>